<svg width="3226" height="1588" xmlns="http://www.w3.org/2000/svg" xmlns:xlink="http://www.w3.org/1999/xlink" overflow="hidden"><defs><clipPath id="clip0"><rect x="216" y="191" width="3226" height="1588"/></clipPath><clipPath id="clip1"><rect x="845" y="303" width="214" height="213"/></clipPath><clipPath id="clip2"><rect x="845" y="303" width="214" height="213"/></clipPath><clipPath id="clip3"><rect x="845" y="303" width="214" height="213"/></clipPath><clipPath id="clip4"><rect x="2416" y="1475" width="234" height="234"/></clipPath><clipPath id="clip5"><rect x="2416" y="1475" width="234" height="234"/></clipPath><clipPath id="clip6"><rect x="2416" y="1475" width="234" height="234"/></clipPath></defs><g clip-path="url(#clip0)" transform="translate(-216 -191)"><rect x="220.5" y="1002.5" width="447" height="264" stroke="#085091" stroke-width="9.16667" stroke-linejoin="round" stroke-miterlimit="10" fill="#0F6FC6"/><text fill="#FFFFFF" font-family="Arial,Arial_MSFontService,sans-serif" font-weight="400" font-size="83" transform="matrix(1 0 0 1 360.937 1164)">C6C</text><rect x="1447.5" y="485.5" width="447" height="265" stroke="#085091" stroke-width="9.16667" stroke-linejoin="round" stroke-miterlimit="10" fill="#0F6FC6"/><text fill="#FFFFFF" font-family="Arial,Arial_MSFontService,sans-serif" font-weight="400" font-size="83" transform="matrix(1 0 0 1 1517.08 648)">Importer</text><rect x="1547.5" y="1442.5" width="447" height="264" stroke="#085091" stroke-width="9.16667" stroke-linejoin="round" stroke-miterlimit="10" fill="#0F6FC6"/><text fill="#FFFFFF" font-family="Arial,Arial_MSFontService,sans-serif" font-weight="400" font-size="83" transform="matrix(1 0 0 1 1614.48 1605)">Exporter</text><rect x="1580" y="1002" width="490" height="264" fill="#0F6FC6" fill-opacity="0.501961"/><text fill="#FFFFFF" font-family="Arial,Arial_MSFontService,sans-serif" font-weight="400" font-size="83" transform="matrix(1 0 0 1 1618.92 1164)">Processors</text><path d="M491.5 974.5 491.5 773.114C491.5 674.273 571.626 594.147 670.466 594.147L1313 594.147 1313 572.5 1413.5 604.969 1313 637.439 1313 615.791 670.466 615.791C583.579 615.791 513.143 686.227 513.143 773.114L513.143 974.5Z" stroke="#085091" stroke-width="9.16667" stroke-linejoin="round" stroke-miterlimit="10" fill="#0F6FC6" fill-rule="evenodd"/><g clip-path="url(#clip1)"><g clip-path="url(#clip2)"><g clip-path="url(#clip3)"><path d="M896.792 485.083 896.792 334.917 952 334.917 952 381.292 1007.21 381.292 1007.21 485.083 896.792 485.083ZM965.25 340.437 992.854 368.042 965.25 368.042 965.25 340.437ZM965.25 321.667 883.542 321.667 883.542 498.333 1020.46 498.333 1020.46 370.25 965.25 321.667Z"/><path d="M910.042 403.375 993.958 403.375 993.958 412.208 910.042 412.208Z"/><path d="M910.042 385.708 938.75 385.708 938.75 394.542 910.042 394.542Z"/><path d="M910.042 421.042 993.958 421.042 993.958 429.875 910.042 429.875Z"/><path d="M910.042 438.708 993.958 438.708 993.958 447.542 910.042 447.542Z"/><path d="M910.042 456.375 993.958 456.375 993.958 465.208 910.042 465.208Z"/></g></g></g><path d="M711.231 1036.1 778.28 964.149 792.092 992.525 1395.69 698.73 1399 705.541 795.407 999.336 809.219 1027.71Z" stroke="#085091" stroke-width="9.16667" stroke-linejoin="round" stroke-miterlimit="10" fill="#0F6FC6" fill-rule="evenodd"/><path d="M877.039 816.763C872.777 807.927 876.486 797.311 885.321 793.05L1088.04 695.281C1096.88 691.02 1107.49 694.728 1111.76 703.563L1142.62 767.551C1146.88 776.386 1143.17 787.003 1134.33 791.264L931.611 889.033C922.776 893.294 912.16 889.586 907.899 880.751Z" stroke="#085091" stroke-width="9.16667" stroke-linejoin="round" stroke-miterlimit="10" fill="#0F6FC6" fill-rule="evenodd"/><text fill="#FFFFFF" font-family="Arial,Arial_MSFontService,sans-serif" font-weight="400" font-size="83" transform="matrix(0.90072 -0.4344 0.4344 0.90072 957.024 851)">Doc</text><text font-family="Arial,Arial_MSFontService,sans-serif" font-weight="400" font-size="83" transform="matrix(1 0 0 1 879.286 296)">Infile</text><path d="M0 326 0 326C-6.39113e-14 155.65 138.095 17.5547 308.445 17.5547L922.501 17.5547 922.501 0 1004 26.3309 922.501 52.6618 922.501 35.1071 308.445 35.1071C147.789 35.1071 17.5524 165.344 17.5524 326L17.5513 326Z" stroke="#085091" stroke-width="9.16667" stroke-linejoin="round" stroke-miterlimit="10" fill="#0F6FC6" fill-rule="evenodd" transform="matrix(1 0 0 -1 491.5 1609.5)"/><path d="M893.5 1644.33C893.5 1634.48 901.484 1626.5 911.334 1626.5L1135.67 1626.5C1145.52 1626.5 1153.5 1634.48 1153.5 1644.33L1153.5 1715.67C1153.5 1725.52 1145.52 1733.5 1135.67 1733.5L911.334 1733.5C901.484 1733.5 893.5 1725.52 893.5 1715.67Z" stroke="#085091" stroke-width="9.16667" stroke-linejoin="round" stroke-miterlimit="10" fill="#0F6FC6" fill-rule="evenodd"/><text fill="#FFFFFF" font-family="Arial,Arial_MSFontService,sans-serif" font-weight="400" font-size="83" transform="matrix(1 0 0 1 949.481 1710)">Doc</text><g clip-path="url(#clip4)"><g clip-path="url(#clip5)"><g clip-path="url(#clip6)"><path d="M2472.82 1508.98 2594.18 1508.98 2594.18 1674.02 2472.82 1674.02 2472.82 1508.98ZM2458.26 1688.58 2608.74 1688.58 2608.74 1494.42 2458.26 1494.42 2458.26 1688.58Z"/><path d="M2489.81 1523.54 2509.23 1523.54 2509.23 1542.96 2489.81 1542.96Z"/><path d="M2528.65 1528.4 2577.19 1528.4 2577.19 1538.1 2528.65 1538.1Z"/><path d="M2489.81 1562.38 2509.23 1562.38 2509.23 1581.79 2489.81 1581.79Z"/><path d="M2528.65 1567.23 2577.19 1567.23 2577.19 1576.94 2528.65 1576.94Z"/><path d="M2489.81 1601.21 2509.23 1601.21 2509.23 1620.62 2489.81 1620.62Z"/><path d="M2528.65 1606.06 2577.19 1606.06 2577.19 1615.77 2528.65 1615.77Z"/><path d="M2489.81 1640.04 2509.23 1640.04 2509.23 1659.46 2489.81 1659.46Z"/><path d="M2528.65 1644.9 2577.19 1644.9 2577.19 1654.6 2528.65 1654.6Z"/></g></g></g><text font-family="Arial,Arial_MSFontService,sans-serif" font-weight="400" font-size="83" transform="matrix(1 0 0 1 2410.72 1464)">Outfile</text><path d="M0 30.9999 80.4889 0 80.4889 27.6782 386 27.6782 386 34.3217 80.4889 34.3217 80.4889 61.9999Z" stroke="#085091" stroke-width="9.16667" stroke-linejoin="round" stroke-miterlimit="10" fill="#0F6FC6" fill-rule="evenodd" transform="matrix(-1 0 0 1 2417.5 1547.5)"/><text font-family="Arial,Arial_MSFontService,sans-serif" font-weight="400" font-size="83" transform="matrix(1 0 0 1 2665.11 1570)">•<tspan font-size="83" x="103.125" y="0">CoNLL</tspan><tspan font-size="83" x="359.792" y="0">-</tspan><tspan font-size="83" x="387.292" y="0">U Plus</tspan><tspan font-size="83" x="0" y="99">•</tspan><tspan font-size="83" x="103.125" y="99">…</tspan><tspan font-size="83" x="-703.676" y="-1022">•</tspan><tspan font-size="83" x="-600.551" y="-1022">DTA</tspan><tspan font-size="83" x="-703.676" y="-923">•</tspan><tspan font-size="83" x="-600.551" y="-923">Tiger</tspan><tspan font-size="83" x="-703.676" y="-824">•</tspan><tspan font-size="83" x="-600.551" y="-824">…</tspan></text><path d="M0 27.5 71.4011 0 71.4011 24.5534 827 24.5534 827 30.4466 71.4011 30.4466 71.4011 55Z" stroke="#59AAF2" stroke-width="3.4375" stroke-linejoin="round" stroke-miterlimit="10" stroke-dasharray="27.5 10.3125" fill="#0F6FC6" fill-rule="evenodd" fill-opacity="0.501961" transform="matrix(-1 0 0 1 1547.5 1040.5)"/><path d="M0 33.5 86.9788 0 86.9788 29.9103 827 29.9103 827 37.0897 86.9788 37.0897 86.9788 67Z" stroke="#59AAF2" stroke-width="3.4375" stroke-linejoin="round" stroke-miterlimit="10" stroke-dasharray="27.5 10.3125" fill="#0F6FC6" fill-rule="evenodd" fill-opacity="0.501961" transform="matrix(1 -1.22465e-16 -1.22465e-16 -1 720.5 1266.5)"/><path d="M1003 1111.67C1003 1101.91 1010.91 1094 1020.67 1094L1246.33 1094C1256.09 1094 1264 1101.91 1264 1111.67L1264 1182.33C1264 1192.09 1256.09 1200 1246.33 1200L1020.67 1200C1010.91 1200 1003 1192.09 1003 1182.33Z" fill="#0F6FC6" fill-rule="evenodd" fill-opacity="0.501961"/><text fill="#FFFFFF" font-family="Arial,Arial_MSFontService,sans-serif" font-weight="400" font-size="83" transform="matrix(1 0 0 1 1060.26 1178)">Doc</text></g></svg>